<svg width="40" height="40" viewBox="0 0 40 40" fill="none" xmlns="http://www.w3.org/2000/svg">
<path d="M0 26.2905C0 27.2427 0.772467 28.0145 1.72528 28.0145H14.3066V28.3903C14.3066 28.8834 14.5176 29.3518 14.8863 29.6793C15.5551 30.2741 16.5684 31.4758 16.6069 33.3182C16.6184 33.8602 16.6138 34.3268 16.6 34.7262H23.4C23.3862 34.3268 23.3816 33.8602 23.3931 33.3182C23.4316 31.4758 24.4449 30.2741 25.1137 29.6793C25.4824 29.3518 25.6934 28.8834 25.6934 28.3903V28.0145H38.2747C39.2275 28.0145 40 27.2427 40 26.2905V24.8582H0V26.2905Z" fill="#F06292"/>
<path d="M27.8675 36.163H12.1325C10.4089 36.163 9.01157 37.5593 9.01157 39.2817C9.01157 39.6784 9.33345 40 9.73043 40H30.2696C30.6666 40 30.9885 39.6784 30.9885 39.2817C30.9885 37.5593 29.5911 36.163 27.8675 36.163Z" fill="#F06292"/>
<path d="M35.7835 7.64795H28.0122V11.4828H35.7835V7.64795Z" fill="#F06292"/>
<path d="M23.8853 7.64795H16.1147V11.4828H23.8853V7.64795Z" fill="#F06292"/>
<path d="M11.9878 7.64795H4.21652V11.4828H11.9878V7.64795Z" fill="#F06292"/>
<path d="M38.2747 0H1.72528C0.772467 0 0 0.771856 0 1.72405V23.4215H39.9999V1.72405C40 0.771856 39.2275 0 38.2747 0ZM35.1452 2.40258H36.5022C36.8992 2.40258 37.221 2.72417 37.221 3.12093C37.221 3.51769 36.8992 3.83928 36.5022 3.83928H35.1452C34.7482 3.83928 34.4263 3.51769 34.4263 3.12093C34.4263 2.72417 34.7482 2.40258 35.1452 2.40258ZM19.8305 2.40258H21.1875C21.5845 2.40258 21.9064 2.72417 21.9064 3.12093C21.9064 3.51769 21.5845 3.83928 21.1875 3.83928H19.8305C19.4335 3.83928 19.1117 3.51769 19.1117 3.12093C19.1117 2.72417 19.4335 2.40258 19.8305 2.40258ZM15.7474 2.40258H17.1043C17.5013 2.40258 17.8232 2.72417 17.8232 3.12093C17.8232 3.51769 17.5013 3.83928 17.1043 3.83928H15.7474C15.3504 3.83928 15.0285 3.51769 15.0285 3.12093C15.0285 2.72417 15.3503 2.40258 15.7474 2.40258ZM14.6769 6.90085C14.6769 6.51983 14.9858 6.21123 15.367 6.21123H24.633C25.0142 6.21123 25.3231 6.51983 25.3231 6.90085V12.2299C25.3231 12.6103 25.0142 12.9195 24.633 12.9195H15.367C14.9858 12.9195 14.6769 12.6103 14.6769 12.2299V6.90085ZM7.58101 2.40258H8.938C9.33499 2.40258 9.65687 2.72417 9.65687 3.12093C9.65687 3.51769 9.33499 3.83928 8.938 3.83928H7.58101C7.18402 3.83928 6.86214 3.51769 6.86214 3.12093C6.86214 2.72417 7.18396 2.40258 7.58101 2.40258ZM3.49784 2.40258H4.85483C5.25182 2.40258 5.5737 2.72417 5.5737 3.12093C5.5737 3.51769 5.25182 3.83928 4.85483 3.83928H3.49784C3.10085 3.83928 2.77897 3.51769 2.77897 3.12093C2.77897 2.72417 3.10079 2.40258 3.49784 2.40258ZM13.4253 20.3006C13.4253 20.6973 13.1035 21.0189 12.7065 21.0189H3.49784C3.10085 21.0189 2.77897 20.6973 2.77897 20.3006V17.9477C2.77897 17.551 3.10085 17.2294 3.49784 17.2294H12.7065C13.1035 17.2294 13.4253 17.551 13.4253 17.9477V20.3006ZM12.7065 15.7927H3.49784C3.10085 15.7927 2.77897 15.471 2.77897 15.0743C2.77897 14.6776 3.10085 14.356 3.49784 14.356H12.7065C13.1035 14.356 13.4253 14.6776 13.4253 15.0743C13.4253 15.471 13.1035 15.7927 12.7065 15.7927ZM13.4255 12.2299C13.4255 12.6103 13.1161 12.9195 12.7354 12.9195H3.46891C3.0882 12.9195 2.7788 12.6103 2.7788 12.2299V6.90085C2.7788 6.51983 3.0882 6.21123 3.46891 6.21123H12.7354C13.1161 6.21123 13.4255 6.51983 13.4255 6.90085V12.2299ZM13.0212 3.83928H11.6642C11.2672 3.83928 10.9453 3.51769 10.9453 3.12093C10.9453 2.72417 11.2672 2.40258 11.6642 2.40258H13.0212C13.4182 2.40258 13.74 2.72417 13.74 3.12093C13.74 3.51769 13.4182 3.83928 13.0212 3.83928ZM25.3232 20.3006C25.3232 20.6973 25.0014 21.0189 24.6043 21.0189H15.3957C14.9986 21.0189 14.6768 20.6973 14.6768 20.3006V17.9477C14.6768 17.551 14.9986 17.2294 15.3957 17.2294H24.6043C25.0014 17.2294 25.3232 17.551 25.3232 17.9477V20.3006ZM24.6043 15.7927H15.3957C14.9986 15.7927 14.6768 15.471 14.6768 15.0743C14.6768 14.6776 14.9986 14.356 15.3957 14.356H24.6043C25.0014 14.356 25.3232 14.6776 25.3232 15.0743C25.3232 15.471 25.0014 15.7927 24.6043 15.7927ZM37.221 20.3006C37.221 20.6973 36.8992 21.0189 36.5022 21.0189H27.2935C26.8965 21.0189 26.5747 20.6973 26.5747 20.3006V17.9477C26.5747 17.551 26.8965 17.2294 27.2935 17.2294H36.5022C36.8992 17.2294 37.2211 17.551 37.2211 17.9477L37.221 20.3006ZM36.5022 15.7927H27.2935C26.8965 15.7927 26.5747 15.471 26.5747 15.0743C26.5747 14.6776 26.8965 14.356 27.2935 14.356H36.5022C36.8992 14.356 37.2211 14.6776 37.2211 15.0743C37.221 15.471 36.8992 15.7927 36.5022 15.7927ZM37.2212 12.2299C37.2212 12.6103 36.9118 12.9195 36.5311 12.9195H27.2646C26.8839 12.9195 26.5745 12.6103 26.5745 12.2299V6.90085C26.5745 6.51983 26.8839 6.21123 27.2646 6.21123H36.5311C36.9118 6.21123 37.2212 6.51983 37.2212 6.90085V12.2299Z" fill="#F06292"/>
</svg>
