<svg width="40" height="40" viewBox="0 0 40 40" fill="none" xmlns="http://www.w3.org/2000/svg">
<path d="M13.3333 0H5C3.67392 0 2.40215 0.526784 1.46447 1.46447C0.526784 2.40215 0 3.67392 0 5L0 13.3333C0 14.6594 0.526784 15.9312 1.46447 16.8689C2.40215 17.8066 3.67392 18.3333 5 18.3333H13.3333C14.6594 18.3333 15.9312 17.8066 16.8689 16.8689C17.8066 15.9312 18.3333 14.6594 18.3333 13.3333V5C18.3333 3.67392 17.8066 2.40215 16.8689 1.46447C15.9312 0.526784 14.6594 0 13.3333 0ZM15 13.3333C15 13.7754 14.8244 14.1993 14.5118 14.5118C14.1993 14.8244 13.7754 15 13.3333 15H5C4.55797 15 4.13405 14.8244 3.82149 14.5118C3.50893 14.1993 3.33333 13.7754 3.33333 13.3333V5C3.33333 4.55797 3.50893 4.13405 3.82149 3.82149C4.13405 3.50893 4.55797 3.33333 5 3.33333H13.3333C13.7754 3.33333 14.1993 3.50893 14.5118 3.82149C14.8244 4.13405 15 4.55797 15 5V13.3333Z" fill="#F06292"/>
<path d="M35 0H26.6667C25.3406 0 24.0688 0.526784 23.1311 1.46447C22.1935 2.40215 21.6667 3.67392 21.6667 5V13.3333C21.6667 14.6594 22.1935 15.9312 23.1311 16.8689C24.0688 17.8066 25.3406 18.3333 26.6667 18.3333H35C36.3261 18.3333 37.5979 17.8066 38.5355 16.8689C39.4732 15.9312 40 14.6594 40 13.3333V5C40 3.67392 39.4732 2.40215 38.5355 1.46447C37.5979 0.526784 36.3261 0 35 0ZM36.6667 13.3333C36.6667 13.7754 36.4911 14.1993 36.1785 14.5118C35.866 14.8244 35.442 15 35 15H26.6667C26.2246 15 25.8007 14.8244 25.4882 14.5118C25.1756 14.1993 25 13.7754 25 13.3333V5C25 4.55797 25.1756 4.13405 25.4882 3.82149C25.8007 3.50893 26.2246 3.33333 26.6667 3.33333H35C35.442 3.33333 35.866 3.50893 36.1785 3.82149C36.4911 4.13405 36.6667 4.55797 36.6667 5V13.3333Z" fill="#F06292"/>
<path d="M13.3333 21.6667H5C3.67392 21.6667 2.40215 22.1935 1.46447 23.1312C0.526784 24.0688 0 25.3406 0 26.6667L0 35C0 36.3261 0.526784 37.5979 1.46447 38.5356C2.40215 39.4732 3.67392 40 5 40H13.3333C14.6594 40 15.9312 39.4732 16.8689 38.5356C17.8066 37.5979 18.3333 36.3261 18.3333 35V26.6667C18.3333 25.3406 17.8066 24.0688 16.8689 23.1312C15.9312 22.1935 14.6594 21.6667 13.3333 21.6667ZM15 35C15 35.442 14.8244 35.866 14.5118 36.1785C14.1993 36.4911 13.7754 36.6667 13.3333 36.6667H5C4.55797 36.6667 4.13405 36.4911 3.82149 36.1785C3.50893 35.866 3.33333 35.442 3.33333 35V26.6667C3.33333 26.2247 3.50893 25.8007 3.82149 25.4882C4.13405 25.1756 4.55797 25 5 25H13.3333C13.7754 25 14.1993 25.1756 14.5118 25.4882C14.8244 25.8007 15 26.2247 15 26.6667V35Z" fill="#F06292"/>
<path d="M35 21.6667H26.6667C25.3406 21.6667 24.0688 22.1935 23.1311 23.1312C22.1935 24.0688 21.6667 25.3406 21.6667 26.6667V35C21.6667 36.3261 22.1935 37.5979 23.1311 38.5356C24.0688 39.4732 25.3406 40 26.6667 40H35C36.3261 40 37.5979 39.4732 38.5355 38.5356C39.4732 37.5979 40 36.3261 40 35V26.6667C40 25.3406 39.4732 24.0688 38.5355 23.1312C37.5979 22.1935 36.3261 21.6667 35 21.6667ZM36.6667 35C36.6667 35.442 36.4911 35.866 36.1785 36.1785C35.866 36.4911 35.442 36.6667 35 36.6667H26.6667C26.2246 36.6667 25.8007 36.4911 25.4882 36.1785C25.1756 35.866 25 35.442 25 35V26.6667C25 26.2247 25.1756 25.8007 25.4882 25.4882C25.8007 25.1756 26.2246 25 26.6667 25H35C35.442 25 35.866 25.1756 36.1785 25.4882C36.4911 25.8007 36.6667 26.2247 36.6667 26.6667V35Z" fill="#F06292"/>
</svg>
