<svg width="76" height="76" viewBox="0 0 76 76" fill="none" xmlns="http://www.w3.org/2000/svg">
<path d="M41.75 45.5H54.875C57.9763 45.5 60.5 42.9763 60.5 39.875V6.125C60.5 3.02375 57.9763 0.5 54.875 0.5H6.125C3.02375 0.5 0.5 3.02375 0.5 6.125V60.5L20.4988 45.5H41.75ZM8 45.125L8.5775 45.065L8 45.5V45.125Z" fill="#6B8E23"/>
<path d="M69.875 23H68V45.5038C68 49.6288 64.6513 52.9775 60.5375 53H23V54.875C23 57.9763 25.5237 60.5 28.625 60.5H55.5012L75.5 75.5V28.625C75.5 25.5237 72.9763 23 69.875 23Z" fill="#1D2120"/>
</svg>
