<svg width="142" height="129" viewBox="0 0 142 129" fill="none" xmlns="http://www.w3.org/2000/svg">
<path d="M110.738 26.5659H75.7436V56.597H50.1638V79.1801H23.2092V97.4905H0V128.499H141.3V26.5659H110.738Z" fill="white"/>
<path d="M52.3623 17.6067C57.2296 17.6067 61.1753 13.6653 61.1753 8.80334C61.1753 3.94139 57.2296 0 52.3623 0C47.495 0 43.5493 3.94139 43.5493 8.80334C43.5493 13.6653 47.495 17.6067 52.3623 17.6067Z" fill="white"/>
<path d="M69.7274 19.47C69.2485 18.9819 68.6782 18.5928 68.0488 18.325C67.4194 18.0571 66.7434 17.9157 66.0593 17.9089C65.3752 17.902 64.6965 18.0298 64.0619 18.285C63.4273 18.5402 62.8492 18.9177 62.3607 19.3961L48.7549 32.7143L46.3737 27.839C48.442 24.9389 48.4644 20.925 46.1263 18.0063C44.7695 16.3128 42.7949 15.227 40.6368 14.9875C38.4786 14.748 36.3136 15.3745 34.6178 16.7292C33.9477 17.2646 18.1033 30.0458 9.5169 47.1994C9.09624 48.0463 8.82548 48.9595 8.71661 49.8987C8.7046 49.964 8.7046 50.0275 8.69231 50.0928C8.6803 50.2128 8.66828 50.3347 8.66337 50.4532C8.63959 50.7503 8.64242 51.0489 8.67183 51.3454C8.71428 52.0702 8.8524 52.786 9.08249 53.4733L14.2517 76.4738L2.62829 93.1228C2.08495 93.903 1.76573 94.8169 1.7052 95.7655C1.64467 96.714 1.84515 97.661 2.2849 98.5038C2.72466 99.3467 3.38693 100.053 4.19997 100.547C5.01301 101.041 5.94581 101.303 6.89732 101.305C8.54296 101.305 10.1613 100.527 11.1748 99.0774L24.1092 80.5457C24.5231 79.9536 24.809 79.2819 24.9486 78.5734C25.0882 77.8649 25.0785 77.135 24.9201 76.4304L20.7816 58.009C21.6153 57.5511 22.3624 56.9512 22.9891 56.2362L30.5393 60.3273L26.4765 74.131C26.2691 74.7906 26.1953 75.4848 26.2595 76.1732C26.3237 76.8616 26.5246 77.5303 26.8504 78.1403C27.1761 78.7503 27.6203 79.2894 28.1569 79.726C28.6936 80.1626 29.3119 80.4881 29.9758 80.6834C30.6398 80.8787 31.336 80.9399 32.0239 80.8634C32.7117 80.7869 33.3775 80.5743 33.9822 80.238C34.5869 79.9017 35.1185 79.4484 35.5459 78.9046C35.9733 78.3608 36.2879 77.7374 36.4715 77.0708L41.7268 59.2308C42.0626 58.0884 41.9964 56.8655 41.539 55.7659C41.0817 54.6664 40.2609 53.7567 39.2134 53.1884L28.4454 47.354C31.7164 42.6159 35.408 38.4887 38.4677 35.3981L42.5546 43.7691C42.9837 44.6452 43.6502 45.3835 44.4784 45.9001C45.3065 46.4167 46.2631 46.6909 47.2395 46.6915C48.5916 46.6915 49.9039 46.1647 50.8833 45.2036L69.6498 26.8349C70.1392 26.3565 70.5295 25.7865 70.7983 25.1574C71.067 24.5283 71.2091 23.8525 71.2163 23.1685C71.2235 22.4845 71.0957 21.8059 70.8402 21.1713C70.5848 20.5366 70.2066 19.9585 69.7274 19.47Z" fill="white"/>
<path d="M122.565 5.95571H114.267V5.0238C114.267 3.19804 112.781 1.71188 110.951 1.71188H105.052C104.172 1.71275 103.329 2.0619 102.707 2.68276C102.086 3.30362 101.735 4.14551 101.734 5.0238V5.95571H94.4689C93.1772 5.95571 92.1309 7.00257 92.1309 8.29296V23.0937C92.1309 24.3844 93.1772 25.431 94.4689 25.431H122.565C123.857 25.431 124.903 24.3841 124.903 23.0937V8.29296C124.903 7.98605 124.843 7.68206 124.726 7.39841C124.608 7.11475 124.436 6.857 124.219 6.6399C124.002 6.4228 123.744 6.25062 123.46 6.13322C123.176 6.01581 122.872 5.95549 122.565 5.95571ZM103.688 5.0238C103.688 4.27212 104.299 3.66316 105.052 3.66316H110.953C111.705 3.66316 112.315 4.27406 112.315 5.0238V5.95571H103.689V5.0238H103.688Z" fill="#D7A31A"/>
</svg>
