<svg width="151" height="151" viewBox="0 0 151 151" fill="none" xmlns="http://www.w3.org/2000/svg">
<mask id="mask0_21_507" style="mask-type:luminance" maskUnits="userSpaceOnUse" x="0" y="0" width="151" height="151">
<path d="M0.822876 0.822937H150.927V150.927H0.822876V0.822937Z" fill="white"/>
</mask>
<g mask="url(#mask0_21_507)">
<mask id="mask1_21_507" style="mask-type:luminance" maskUnits="userSpaceOnUse" x="0" y="0" width="151" height="151">
<path d="M75.875 0.822937C117.323 0.822937 150.927 34.4271 150.927 75.875C150.927 117.323 117.323 150.927 75.875 150.927C34.427 150.927 0.822876 117.323 0.822876 75.875C0.822876 34.4271 34.427 0.822937 75.875 0.822937Z" fill="white"/>
</mask>
<g mask="url(#mask1_21_507)">
<path d="M0.822876 0.822937H150.927V150.927H0.822876V0.822937Z" fill="#1C1E24"/>
</g>
</g>
<mask id="mask2_21_507" style="mask-type:luminance" maskUnits="userSpaceOnUse" x="0" y="0" width="151" height="151">
<path d="M0.822876 0.822937H150.823V150.823H0.822876V0.822937Z" fill="white"/>
</mask>
<g mask="url(#mask2_21_507)">
<mask id="mask3_21_507" style="mask-type:luminance" maskUnits="userSpaceOnUse" x="0" y="0" width="151" height="151">
<path d="M75.8698 0.822937C117.318 0.822937 150.917 34.4219 150.917 75.8698C150.917 117.318 117.318 150.917 75.8698 150.917C34.4218 150.917 0.822876 117.318 0.822876 75.8698C0.822876 34.4219 34.4218 0.822937 75.8698 0.822937Z" fill="white"/>
</mask>
<g mask="url(#mask3_21_507)">
<path d="M75.8698 0.822937C117.318 0.822937 150.917 34.4219 150.917 75.8698C150.917 117.318 117.318 150.917 75.8698 150.917C34.4218 150.917 0.822876 117.318 0.822876 75.8698C0.822876 34.4219 34.4218 0.822937 75.8698 0.822937Z" stroke="white" stroke-width="8"/>
</g>
</g>
<path d="M71.4375 50.0208C71.4375 47.2708 69.4792 45.0208 65.5625 43.2708C63.2813 42.2864 61.0625 41.7916 58.8958 41.7916C55.9219 41.7916 53.5 43.1041 51.625 45.7291C50.9271 45.4375 50.2552 45.2916 49.6042 45.2916C47.5052 45.2916 45.6771 46.5208 44.125 48.9791C42.5833 51.427 41.8125 53.8125 41.8125 56.1458C41.8125 57.3125 41.9688 58.5833 42.2917 59.9583C42.625 61.3333 42.9792 62.5104 43.3542 63.4791C43.7292 64.4375 44.2188 65.6823 44.8333 67.2083C45.4427 68.7239 45.8646 69.802 46.1042 70.4375C46.9219 72.8281 47.651 74.5781 48.2917 75.6875C52.151 83.3437 54.6354 88.7448 55.75 91.8958C56.3854 93.4114 56.7083 95.0156 56.7083 96.7083C56.7083 98.0573 56.5885 99.4323 56.3542 100.833C55.3646 99.9062 54.1458 99.4375 52.6875 99.4375C51.1042 99.4375 49.8125 99.9948 48.8125 101.104C47.8229 102.203 47.3333 103.453 47.3333 104.854C47.3333 106.964 48.3229 108.719 50.3125 110.125C52.2969 111.526 54.6354 112.229 57.3333 112.229C63.1094 112.229 66.9271 110.88 68.7917 108.187C70.6667 105.51 71.6042 100.927 71.6042 94.4375C71.6042 87.2031 68.8854 77.1875 63.4583 64.3958C62.526 62.2864 61.9167 60.8437 61.625 60.0625C61.3333 59.2708 61.0521 58.25 60.7917 57C60.526 55.7395 60.3958 54.375 60.3958 52.9166C61.0312 53.1562 61.5 53.3854 61.7917 53.6041C63.4271 54.7864 64.8021 55.375 65.9167 55.375C67.4844 55.375 68.7969 54.8489 69.8542 53.7916C70.9063 52.7395 71.4375 51.4791 71.4375 50.0208Z" fill="#757575"/>
<path d="M110 50.0208C110 47.2708 108.042 45.0208 104.125 43.2708C101.844 42.2864 99.625 41.7916 97.4583 41.7916C94.4844 41.7916 92.0625 43.1041 90.1875 45.7291C89.4896 45.4375 88.8177 45.2916 88.1667 45.2916C86.0677 45.2916 84.2396 46.5208 82.6875 48.9791C81.1458 51.427 80.375 53.8125 80.375 56.1458C80.375 57.3125 80.5313 58.5833 80.8542 59.9583C81.1875 61.3333 81.5417 62.5104 81.9167 63.4791C82.2917 64.4375 82.7813 65.6823 83.3958 67.2083C84.0052 68.7239 84.4271 69.802 84.6667 70.4375C85.4844 72.8281 86.2135 74.5781 86.8542 75.6875C90.7135 83.3437 93.1979 88.7448 94.3125 91.8958C94.9479 93.4114 95.2708 95.0156 95.2708 96.7083C95.2708 98.0573 95.151 99.4323 94.9167 100.833C93.9271 99.9062 92.7083 99.4375 91.25 99.4375C89.6667 99.4375 88.375 99.9948 87.375 101.104C86.3854 102.203 85.8958 103.453 85.8958 104.854C85.8958 106.964 86.8854 108.719 88.875 110.125C90.8594 111.526 93.1979 112.229 95.8958 112.229C101.672 112.229 105.49 110.88 107.354 108.187C109.229 105.51 110.167 100.927 110.167 94.4375C110.167 87.2031 107.448 77.1875 102.021 64.3958C101.089 62.2864 100.479 60.8437 100.188 60.0625C99.8958 59.2708 99.6146 58.25 99.3542 57C99.0885 55.7395 98.9583 54.375 98.9583 52.9166C99.5937 53.1562 100.063 53.3854 100.354 53.6041C101.99 54.7864 103.365 55.375 104.479 55.375C106.047 55.375 107.359 54.8489 108.417 53.7916C109.469 52.7395 110 51.4791 110 50.0208Z" fill="#A52A2A"/>
</svg>
