<svg width="151" height="151" viewBox="0 0 151 151" fill="none" xmlns="http://www.w3.org/2000/svg">
<mask id="mask0_20_313" style="mask-type:luminance" maskUnits="userSpaceOnUse" x="0" y="0" width="151" height="151">
<path d="M0.822876 0.822937H150.927V150.927H0.822876V0.822937Z" fill="white"/>
</mask>
<g mask="url(#mask0_20_313)">
<mask id="mask1_20_313" style="mask-type:luminance" maskUnits="userSpaceOnUse" x="0" y="0" width="151" height="151">
<path d="M75.875 0.822937C117.323 0.822937 150.927 34.4271 150.927 75.875C150.927 117.323 117.323 150.927 75.875 150.927C34.427 150.927 0.822876 117.323 0.822876 75.875C0.822876 34.4271 34.427 0.822937 75.875 0.822937Z" fill="white"/>
</mask>
<g mask="url(#mask1_20_313)">
<path d="M0.822876 0.822937H150.927V150.927H0.822876V0.822937Z" fill="#1C1E24"/>
</g>
</g>
<mask id="mask2_20_313" style="mask-type:luminance" maskUnits="userSpaceOnUse" x="0" y="0" width="151" height="151">
<path d="M0.822876 0.822937H150.823V150.823H0.822876V0.822937Z" fill="white"/>
</mask>
<g mask="url(#mask2_20_313)">
<mask id="mask3_20_313" style="mask-type:luminance" maskUnits="userSpaceOnUse" x="0" y="0" width="151" height="151">
<path d="M75.8698 0.822937C117.318 0.822937 150.917 34.4219 150.917 75.8698C150.917 117.318 117.318 150.917 75.8698 150.917C34.4218 150.917 0.822876 117.318 0.822876 75.8698C0.822876 34.4219 34.4218 0.822937 75.8698 0.822937Z" fill="white"/>
</mask>
<g mask="url(#mask3_20_313)">
<path d="M75.8698 0.822937C117.318 0.822937 150.917 34.4219 150.917 75.8698C150.917 117.318 117.318 150.917 75.8698 150.917C34.4218 150.917 0.822876 117.318 0.822876 75.8698C0.822876 34.4219 34.4218 0.822937 75.8698 0.822937Z" stroke="white" stroke-width="8"/>
</g>
</g>
<path d="M43.7448 105.521C43.7448 107.458 46.724 105.958 46.2031 107.542L46.724 107.021H49.099L49.2656 106.75C49.349 106.833 49.5365 107.104 49.5365 107.187C49.5365 107.271 49.349 107.542 49.2656 107.542C49.2656 107.542 49.349 107.542 49.4323 107.542H49.5365C49.6198 107.458 50.0573 107.021 50.1406 107.021C50.6615 106.75 54.7031 105.792 54.2656 104.917C55.9323 104.562 61.0156 100.625 61.1823 98.3333H61.6198V97.2916C62.224 97.2916 61.974 96.7708 62.5781 96.7708C62.5781 96.6875 62.5781 96.5833 62.4948 96.5833C62.4948 96.5 62.224 96.3333 62.224 96.3333C62.224 96.3333 62.4948 95.8958 62.4948 95.7916C62.5781 95.5416 62.7656 95.1041 62.7656 95.0208C62.7656 94.9166 62.5781 93.875 62.4948 93.7083V93.5208V93.4375C63.4531 92.5625 63.5365 91.6041 63.5365 90.1875C63.5365 90.0208 63.5365 89.5833 63.5365 89.5L63.2865 89.3125C63.2865 89.2291 63.5365 88.7916 63.5365 88.7916C63.4531 88.2708 62.7656 87.9166 62.7656 87.2083C61.7865 87.2083 59.7865 80.7291 56.5365 81C57.3281 79.8541 49.7865 77.5833 49.099 77.3125C48.8281 77.2291 47.2448 76.875 46.9948 76.7916C46.5573 76.625 44.3698 75.5625 43.8281 75.2083H43.0573L40.5156 73.8958C40.5156 73.8958 40.4115 73.0208 40.4115 72.8541C40.4115 70.75 41.9948 69.4375 41.9948 67.5833C42.349 67.5833 42.8698 67.25 42.8698 66.8125V66.7083C42.8698 66.625 42.4323 66.4583 42.349 66.375C42.7865 65.6666 44.7031 65.5 44.4531 64C46.0156 62.6041 46.1198 61.8958 47.5156 60.4166C50.6615 57.1666 53.5573 54.1875 57.599 52.3541L57.849 51.8333C57.849 51.9166 58.0365 52.0833 58.1198 52.0833C58.2031 52.0833 58.8073 51.8333 58.9115 51.8333C59.0781 51.8333 61.6198 50.9583 61.7865 50.7708H64.599C65.1198 51.5625 65.9948 51.125 65.8281 52.6041C65.8281 52.9583 64.6823 55.5 64.7656 56.0208L59.9531 66.375C59.8698 66.4583 59.6823 66.625 59.6823 66.7083C59.4323 66.9791 58.0365 69.6875 57.849 70.0416C57.6823 70.3125 56.7031 71.7916 56.5365 72.0625C56.8906 72.7708 55.3906 73.9791 55.3073 74.7708C55.1406 75.3125 56.4531 76.2708 56.8073 76.2708C57.4948 76.2708 58.8073 76.0833 59.349 75.5625C60.5781 74.4166 63.2865 71.7083 63.2865 71.625V71.1041H63.5365L64.7656 69.7916L64.3281 70.0416C64.3281 69.9583 64.3281 69.875 64.3281 69.875C64.3281 69.5208 65.3906 69 65.6406 68.7291C67.0573 66.8958 72.1406 58.5625 72.1406 56.8125H71.8698C72.6615 55.3333 73.349 53.3958 73.349 51.8333H73.099C73.1823 51.7291 73.349 51.2083 73.349 51.0416V50.7708H73.099L73.349 49.7291L72.9115 49.9791V49.8958C72.9115 49.8125 72.9115 49.7291 72.9115 49.7291C72.9115 49.625 73.0156 49.375 73.099 49.2916C71.599 49.0208 73.4531 42.9791 64.9531 42.9791C63.9948 42.9791 62.0573 43.2291 61.0156 43.5C53.9115 45.25 45.9323 50.6041 41.2865 56.0208C41.2031 56.7291 39.2865 57.9583 39.0156 58.3125C35.2448 63.125 29.6406 69.3541 29.6406 76C29.6406 76.1875 29.6406 76.875 29.6406 77.0625C29.9115 77.2291 31.3073 80.5625 31.474 81C31.7448 81.6875 36.474 86.6875 37.1823 86.9583H37.4323C37.5365 87.125 38.5781 88.2708 38.849 88.2708H39.0156C39.099 88.2708 39.3698 88.0833 39.4531 88V88.4375H40.5156V88.7916C40.9531 88.7916 40.9531 88.4375 41.2865 88.4375C42.0781 88.4375 42.7865 89.3125 43.6615 89.3125C43.7448 89.3125 44.4531 89.4166 44.4531 89.0625C44.4531 88.9583 44.1823 88.5208 44.099 88.4375L44.7031 88.2708C44.6198 88.3541 44.6198 88.4375 44.7031 88.4375C44.7031 88.5208 45.0573 88.7083 45.1406 88.7916C44.8073 89.0625 44.8073 89.5 44.4531 89.8541C44.5365 89.8541 45.0573 90.0208 45.1406 90.1041L45.2448 90.1875C45.2448 90.2916 45.1406 90.375 45.1406 90.375C45.1406 90.4583 44.7031 90.5416 44.7031 90.5416C44.7031 90.8125 45.7656 91.1666 45.9323 91.1666C46.2031 91.1666 47.349 90.8958 47.5156 90.8958V91.4166C47.2448 91.4166 47.2448 91.25 46.9948 91.6041C47.5156 91.5 48.3073 91.6875 48.8281 91.8541L48.474 92.2083C49.099 91.7708 49.5365 92.7291 49.5365 92.9166C49.5365 92.4791 49.7865 92.375 50.1406 92.375C50.7656 92.375 50.3281 93.2708 50.9323 93.4375C50.7656 93.7083 49.2656 96.3333 49.099 96.5833C48.474 97.2916 47.0781 97.375 47.0781 98.5208C44.974 97.7291 44.2656 99.3125 43.8281 99.75C43.7448 99.8333 43.3906 100 43.3906 100C43.224 99.9166 42.4323 99.4791 42.349 99.3958H42.1615H42.0781C41.9948 99.4791 41.9115 99.75 41.8281 99.75C41.724 99.75 41.1198 99.4791 41.0365 99.3958H40.9531C40.1615 99.3958 39.974 100.542 39.974 101.146C39.974 102.812 42.4323 103.771 42.4323 105.167H43.3906L42.599 105.271C42.599 106.042 43.4948 105.521 43.7448 105.521Z" fill="#757575"/>
<path d="M92.7292 105.521C92.7292 107.458 95.7083 105.958 95.1875 107.542L95.7083 107.021H98.0833L98.25 106.75C98.3333 106.833 98.5208 107.104 98.5208 107.187C98.5208 107.271 98.3333 107.542 98.25 107.542C98.25 107.542 98.3333 107.542 98.4167 107.542H98.5208C98.6042 107.458 99.0417 107.021 99.125 107.021C99.6458 106.75 103.688 105.792 103.25 104.917C104.917 104.562 110 100.625 110.167 98.3333H110.604V97.2916C111.208 97.2916 110.958 96.7708 111.563 96.7708C111.563 96.6875 111.563 96.5833 111.479 96.5833C111.479 96.5 111.208 96.3333 111.208 96.3333C111.208 96.3333 111.479 95.8958 111.479 95.7916C111.563 95.5416 111.75 95.1041 111.75 95.0208C111.75 94.9166 111.563 93.875 111.479 93.7083V93.5208V93.4375C112.438 92.5625 112.521 91.6041 112.521 90.1875C112.521 90.0208 112.521 89.5833 112.521 89.5L112.271 89.3125C112.271 89.2291 112.521 88.7916 112.521 88.7916C112.438 88.2708 111.75 87.9166 111.75 87.2083C110.771 87.2083 108.771 80.7291 105.521 81C106.313 79.8541 98.7708 77.5833 98.0833 77.3125C97.8125 77.2291 96.2292 76.875 95.9792 76.7916C95.5417 76.625 93.3542 75.5625 92.8125 75.2083H92.0417L89.5 73.8958C89.5 73.8958 89.3958 73.0208 89.3958 72.8541C89.3958 70.75 90.9792 69.4375 90.9792 67.5833C91.3333 67.5833 91.8542 67.25 91.8542 66.8125V66.7083C91.8542 66.625 91.4167 66.4583 91.3333 66.375C91.7708 65.6666 93.6875 65.5 93.4375 64C95 62.6041 95.1042 61.8958 96.5 60.4166C99.6458 57.1666 102.542 54.1875 106.583 52.3541L106.833 51.8333C106.833 51.9166 107.021 52.0833 107.104 52.0833C107.188 52.0833 107.792 51.8333 107.896 51.8333C108.063 51.8333 110.604 50.9583 110.771 50.7708H113.583C114.104 51.5625 114.979 51.125 114.813 52.6041C114.813 52.9583 113.667 55.5 113.75 56.0208L108.938 66.375C108.854 66.4583 108.667 66.625 108.667 66.7083C108.417 66.9791 107.021 69.6875 106.833 70.0416C106.667 70.3125 105.688 71.7916 105.521 72.0625C105.875 72.7708 104.375 73.9791 104.292 74.7708C104.125 75.3125 105.438 76.2708 105.792 76.2708C106.479 76.2708 107.792 76.0833 108.333 75.5625C109.563 74.4166 112.271 71.7083 112.271 71.625V71.1041H112.521L113.75 69.7916L113.313 70.0416C113.313 69.9583 113.313 69.875 113.313 69.875C113.313 69.5208 114.375 69 114.625 68.7291C116.042 66.8958 121.125 58.5625 121.125 56.8125H120.854C121.646 55.3333 122.333 53.3958 122.333 51.8333H122.083C122.167 51.7291 122.333 51.2083 122.333 51.0416V50.7708H122.083L122.333 49.7291L121.896 49.9791V49.8958C121.896 49.8125 121.896 49.7291 121.896 49.7291C121.896 49.625 122 49.375 122.083 49.2916C120.583 49.0208 122.438 42.9791 113.938 42.9791C112.979 42.9791 111.042 43.2291 110 43.5C102.896 45.25 94.9167 50.6041 90.2708 56.0208C90.1875 56.7291 88.2708 57.9583 88 58.3125C84.2292 63.125 78.625 69.3541 78.625 76C78.625 76.1875 78.625 76.875 78.625 77.0625C78.8958 77.2291 80.2917 80.5625 80.4583 81C80.7292 81.6875 85.4583 86.6875 86.1667 86.9583H86.4167C86.5208 87.125 87.5625 88.2708 87.8333 88.2708H88C88.0833 88.2708 88.3542 88.0833 88.4375 88V88.4375H89.5V88.7916C89.9375 88.7916 89.9375 88.4375 90.2708 88.4375C91.0625 88.4375 91.7708 89.3125 92.6458 89.3125C92.7292 89.3125 93.4375 89.4166 93.4375 89.0625C93.4375 88.9583 93.1667 88.5208 93.0833 88.4375L93.6875 88.2708C93.6042 88.3541 93.6042 88.4375 93.6875 88.4375C93.6875 88.5208 94.0417 88.7083 94.125 88.7916C93.7917 89.0625 93.7917 89.5 93.4375 89.8541C93.5208 89.8541 94.0417 90.0208 94.125 90.1041L94.2292 90.1875C94.2292 90.2916 94.125 90.375 94.125 90.375C94.125 90.4583 93.6875 90.5416 93.6875 90.5416C93.6875 90.8125 94.75 91.1666 94.9167 91.1666C95.1875 91.1666 96.3333 90.8958 96.5 90.8958V91.4166C96.2292 91.4166 96.2292 91.25 95.9792 91.6041C96.5 91.5 97.2917 91.6875 97.8125 91.8541L97.4583 92.2083C98.0833 91.7708 98.5208 92.7291 98.5208 92.9166C98.5208 92.4791 98.7708 92.375 99.125 92.375C99.75 92.375 99.3125 93.2708 99.9167 93.4375C99.75 93.7083 98.25 96.3333 98.0833 96.5833C97.4583 97.2916 96.0625 97.375 96.0625 98.5208C93.9583 97.7291 93.25 99.3125 92.8125 99.75C92.7292 99.8333 92.375 100 92.375 100C92.2083 99.9166 91.4167 99.4791 91.3333 99.3958H91.1458H91.0625C90.9792 99.4791 90.8958 99.75 90.8125 99.75C90.7083 99.75 90.1042 99.4791 90.0208 99.3958H89.9375C89.1458 99.3958 88.9583 100.542 88.9583 101.146C88.9583 102.812 91.4167 103.771 91.4167 105.167H92.375L91.5833 105.271C91.5833 106.042 92.4792 105.521 92.7292 105.521Z" fill="#A52A2A"/>
</svg>
