<svg xml:space="preserve" viewBox="0 0 100 100" y="0" x="0" xmlns="http://www.w3.org/2000/svg" id="圖層_1" version="1.1" preserveAspectRatio="xMidYMid" width="200" height="200" xmlns:xlink="http://www.w3.org/1999/xlink" style="margin-top:0px;margin-right:0px;margin-bottom:0px;margin-left:0px;display:block;shape-rendering:auto;background-position-x:0%;background-position-y:0%;background-size:auto;background-origin:padding-box;background-clip:border-box;background:scroll rgba(0, 0, 0, 0) none  repeat;width:200px;height:200px;;animation:none"><g class="ldl-scale" style="transform-origin:50px 50px;transform:matrix(0.8, 0, 0, 0.8, 0, 0);;animation:none"><g class="ldl-ani"><g class="ldl-layer"><g class="ldl-ani" style="transform:matrix(1, 0, 0, 1, 0, 0);transform-box:view-box;animation-duration:1s;animation-timing-function:linear;animation-delay:-0.5625s;animation-iteration-count:infinite;animation-direction:normal;animation-fill-mode:forwards;animation-play-state:paused;animation-name:animate;animation-timeline:auto;animation-range-start:normal;animation-range-end:normal;transform-origin:50px 50px;;animation:none"><path stroke-miterlimit="10" stroke-width="3.5" stroke="#333" fill="#a7a6a3" d="M81.2 19.7c-.4-5-4.5-8.7-9.5-8.7h-1.4c-.9 0-1.6.7-1.6 1.6v3.8c0 .9.7 1.6 1.6 1.6h1.4c1.4 0 2.5 1 2.7 2.4l1.5 17.2c0 1.8-.4 3.6-1.1 5.3-.7 1.6-1.7 3.1-3 4.4-2.1 2.1-4.9 3.5-8 3.9-1.2.2-2.5.2-3.7 0-3-.5-5.7-1.8-7.7-3.9-1.3-1.3-2.3-2.7-3-4.4-.7-1.7-1.1-3.4-1.1-5.2l1.5-17.3c.1-1.4 1.3-2.4 2.7-2.4h1.4c.9 0 1.6-.7 1.6-1.6v-3.8c0-.9-.7-1.6-1.6-1.6h-1.4c-5 0-9.1 3.8-9.5 8.7l-1.5 17.5v.3c0 2.8.5 5.5 1.6 8 1 2.5 2.5 4.7 4.4 6.6 1.9 1.9 4.1 3.4 6.6 4.4 1.5.6 3 1.1 4.6 1.3v15.9c0 6.9-5.9 12.5-13 11.8-6.1-.6-10.7-6-10.7-12.1v-4.8h-7v4.7c0 10.4 8.3 19.2 18.7 19.2 10 0 18.3-7.8 18.8-17.9v-.3-.6h0V57.8c1.6-.3 3.1-.7 4.6-1.3 2.5-1 4.7-2.5 6.6-4.4 1.9-1.9 3.4-4.1 4.4-6.6 1.1-2.6 1.6-5.3 1.6-8.1l-1.5-17.7z" style="stroke-width:3.5px;fill:rgb(167, 166, 163);stroke:rgb(51, 51, 51);;animation:none"></path></g></g>
<g class="ldl-layer"><g class="ldl-ani" style="transform:matrix(1, 0, 0, 1, 0, 0);transform-box:view-box;animation-duration:1s;animation-timing-function:linear;animation-delay:-0.625s;animation-iteration-count:infinite;animation-direction:normal;animation-fill-mode:forwards;animation-play-state:paused;animation-name:animate;animation-timeline:auto;animation-range-start:normal;animation-range-end:normal;transform-origin:50px 50px;;animation:none"><path stroke-miterlimit="10" stroke-width="3.5" stroke="#333" fill="#fefefe" d="M70.3 17.9h1.4c1.4 0 2.5 1 2.7 2.4l1.5 17.2c0 .7-.1 1.3-.2 2h7c.1-.7.1-1.4.1-2.2l-1.5-17.6c-.4-5-4.5-8.7-9.5-8.7h-1.4c-.9 0-1.6.7-1.6 1.6v3.8c-.1.8.6 1.5 1.5 1.5z" style="stroke-width:3.5px;fill:rgb(254, 254, 254);stroke:rgb(51, 51, 51);;animation:none"></path></g></g>
<g class="ldl-layer"><g class="ldl-ani" style="transform:matrix(1, 0, 0, 1, 0, 0);transform-box:view-box;animation-duration:1s;animation-timing-function:linear;animation-delay:-0.6875s;animation-iteration-count:infinite;animation-direction:normal;animation-fill-mode:forwards;animation-play-state:paused;animation-name:animate;animation-timeline:auto;animation-range-start:normal;animation-range-end:normal;transform-origin:50px 50px;;animation:none"><path stroke-miterlimit="10" stroke-width="3.5" stroke="#333" fill="#fefefe" d="M48.5 39.6c-.1-.6-.2-1.3-.2-1.9l1.5-17.3c.1-1.4 1.3-2.4 2.7-2.4h1.4c.9 0 1.6-.7 1.6-1.6v-3.8c0-.9-.7-1.6-1.6-1.6h-1.4c-5 0-9.1 3.8-9.5 8.7l-1.5 17.5v.3c0 .7 0 1.4.1 2.1h6.9z" style="stroke-width:3.5px;fill:rgb(254, 254, 254);stroke:rgb(51, 51, 51);;animation:none"></path></g></g>
<g class="ldl-layer"><g class="ldl-ani" style="transform:matrix(1, 0, 0, 1, 0, 0);transform-box:view-box;animation-duration:1s;animation-timing-function:linear;animation-delay:-0.75s;animation-iteration-count:infinite;animation-direction:normal;animation-fill-mode:forwards;animation-play-state:paused;animation-name:animate;animation-timeline:auto;animation-range-start:normal;animation-range-end:normal;transform-origin:50px 50px;;animation:none"><path stroke-miterlimit="10" stroke-width="3.5" stroke="#333" fill="#fefefe" d="M42.7 84.9c-4.5-1.7-7.8-6-7.8-11.1v-5.1H28v5.1c0 7.6 4.5 14.1 11 17 1.3-1.8 2.6-3.8 3.7-5.9z" style="stroke-width:3.5px;fill:rgb(254, 254, 254);stroke:rgb(51, 51, 51);;animation:none"></path></g></g>
<g class="ldl-layer"><g class="ldl-ani" style="transform:matrix(1, 0, 0, 1, 0, 0);transform-box:view-box;animation-duration:1s;animation-timing-function:linear;animation-delay:-0.8125s;animation-iteration-count:infinite;animation-direction:normal;animation-fill-mode:forwards;animation-play-state:paused;animation-name:animate;animation-timeline:auto;animation-range-start:normal;animation-range-end:normal;transform-origin:50px 50px;;animation:none"><circle stroke-miterlimit="10" stroke-width="3.5" stroke="#333" fill="#e0e0e0" r="13.1" cy="67.1" cx="30.4" style="stroke-width:3.5px;fill:rgb(224, 224, 224);stroke:rgb(51, 51, 51);;animation:none"></circle></g></g>
<g class="ldl-layer"><g class="ldl-ani" style="transform:matrix(1, 0, 0, 1, 0, 0);transform-box:view-box;animation-duration:1s;animation-timing-function:linear;animation-delay:-0.875s;animation-iteration-count:infinite;animation-direction:normal;animation-fill-mode:forwards;animation-play-state:paused;animation-name:animate;animation-timeline:auto;animation-range-start:normal;animation-range-end:normal;transform-origin:50px 50px;;animation:none"><circle stroke-miterlimit="10" stroke-width="3.5" stroke="#333" fill="#666" r="5.6" cy="67.1" cx="30.4" style="stroke-width:3.5px;fill:rgb(102, 102, 102);stroke:rgb(51, 51, 51);;animation:none"></circle></g></g>
<g class="ldl-layer"><g class="ldl-ani" style="transform:matrix(1, 0, 0, 1, 0, 0);transform-box:view-box;animation-duration:1s;animation-timing-function:linear;animation-delay:-0.9375s;animation-iteration-count:infinite;animation-direction:normal;animation-fill-mode:forwards;animation-play-state:paused;animation-name:animate;animation-timeline:auto;animation-range-start:normal;animation-range-end:normal;transform-origin:50px 50px;;animation:none"><path fill="#333" stroke-miterlimit="10" stroke-width="3.5" stroke="#333" d="M54.7 19.6l-2.6.2c-1.2.1-2.3-.8-2.4-2l-.6-7.6c-.1-1.2.8-2.3 2-2.4l2.6-.2c1.2-.1 2.3.8 2.4 2l.6 7.6c.1 1.2-.8 2.3-2 2.4z" style="stroke-width:3.5px;fill:rgb(51, 51, 51);stroke:rgb(51, 51, 51);;animation:none"></path></g></g>
<g class="ldl-layer"><g class="ldl-ani" style="transform:matrix(1, 0, 0, 1, 0, 0);transform-box:view-box;animation-duration:1s;animation-timing-function:linear;animation-delay:-1s;animation-iteration-count:infinite;animation-direction:normal;animation-fill-mode:forwards;animation-play-state:paused;animation-name:animate;animation-timeline:auto;animation-range-start:normal;animation-range-end:normal;transform-origin:50px 50px;;animation:none"><path fill="#333" stroke-miterlimit="10" stroke-width="3.5" stroke="#333" d="M69.3 19.6l2.6.2c1.2.1 2.3-.8 2.4-2l.6-7.6c.1-1.2-.8-2.3-2-2.4l-2.6-.2c-1.2-.1-2.3.8-2.4 2l-.6 7.6c-.1 1.2.8 2.3 2 2.4z" style="stroke-width:3.5px;fill:rgb(51, 51, 51);stroke:rgb(51, 51, 51);;animation:none"></path></g></g>
<metadata xmlns:d="https://loading.io/stock/"></metadata></g></g>
<STYLE type="text/css">@keyframes animate { 0.00% {animation-timing-function: cubic-bezier(0.33,0.00,0.67,0.00);transform: translate(0.00px,0.00px) rotate(0.00deg) scale(1.00, 1.00) skew(0deg, 0.00deg) ;opacity: 1.00;}50.00% {animation-timing-function: cubic-bezier(0.33,0.00,0.67,0.00);transform: translate(0.00px,0.00px) rotate(0.00deg) ;}100.00% {animation-timing-function: cubic-bezier(0.33,0.00,0.67,0.00);transform: translate(0.00px,0.00px) rotate(0.00deg) ;} }</STYLE><!-- [ldio] generated by https://loading.io --></svg>