<svg width="40" height="40" viewBox="0 0 40 40" fill="none" xmlns="http://www.w3.org/2000/svg">
<path d="M17.4888 15.1948L40 6.68256L39.9736 31.3289L17.4624 40L17.4888 15.1948Z" fill="#9ACD32"/>
<path d="M17.4888 15.1948L17.4624 40L0 33.3175L0.0263901 8.67114L17.4888 15.1948Z" fill="#9ACD32"/>
<path d="M16.2592 25.0695L16.25 27.0023L1.21454 21.2487L1.22378 19.3159L16.2592 25.0695Z" fill="#1C1E24"/>
<path d="M1.20226 24.8611L16.2377 30.6148L16.2284 32.5496L1.19302 26.796L1.20226 24.8611Z" fill="#1C1E24"/>
<path d="M1.20226 30.6935L16.2377 36.4471L16.2284 38.6691L1.19302 32.9155L1.20226 30.6935Z" fill="#1C1E24"/>
<path d="M1.83893 32.6689L1.84396 31.4327L15.5919 36.6936L15.5865 37.93L1.83893 32.6689Z" fill="#1C1E24"/>
<path d="M1.21146 22.0895L16.2469 27.8431L16.2377 29.776L1.20532 24.0224L1.21146 22.0895Z" fill="#1C1E24"/>
<path d="M12.1038 29.5647L12.8853 30.1441L15.3404 31.0836L15.3391 31.3956L12.8853 30.4567L12.1 30.4375L5.32448 27.8446L4.54298 27.2642L2.08926 26.3252L2.0906 26.0132L4.54572 26.9527L5.32822 26.9719L12.1038 29.5647Z" fill="#1C1E24"/>
<path d="M12.1038 29.5647L12.8853 30.1441L15.3404 31.0836L15.3391 31.3956L12.8853 30.4567L12.1 30.4375L5.32448 27.8446L4.54298 27.2642L2.08926 26.3252L2.0906 26.0132L4.54572 26.9527L5.32822 26.9719L12.1038 29.5647Z" fill="#1C1E24"/>
<path d="M12.1147 26.7919L12.8962 27.3723L15.3514 28.3118L15.35 28.6228L12.8963 27.6838L12.111 27.6657L5.33547 25.0728L4.55397 24.4913L2.10025 23.5523L2.10158 23.2414L4.55671 24.1809L5.3392 24.199L12.1147 26.7919Z" fill="#1C1E24"/>
<path d="M12.1257 24.019L12.9072 24.5994L15.3624 25.539L15.361 25.851L12.9073 24.912L12.122 24.8928L5.34646 22.3L4.56495 21.7195L2.11124 20.7805L2.11257 20.4685L4.56769 21.408L5.35019 21.4261L12.1257 24.019Z" fill="#1C1E24"/>
<path d="M1.24224 14.6482L16.2777 20.4018L16.2623 24.1206L1.22687 18.367L1.24224 14.6482Z" fill="#1C1E24"/>
<path d="M16.2961 15.6655L16.2807 19.3844L1.24533 13.6308L1.26071 9.91193L16.2961 15.6655Z" fill="#1C1E24"/>
<path d="M11.4467 19.0694L11.4418 20.2092L9.94397 19.636L9.94885 18.4962L11.4467 19.0694Z" fill="#1C1E24"/>
<path d="M11.4582 15.883L11.4533 17.0227L9.95544 16.4495L9.96032 15.3098L11.4582 15.883Z" fill="#1C1E24"/>
<path d="M3.22397 15.9227L3.2191 17.0624L1.72125 16.4892L1.72612 15.3495L3.22397 15.9227Z" fill="#1C1E24"/>
<path d="M3.21737 17.472L3.21249 18.6117L1.71463 18.0385L1.71951 16.8988L3.21737 17.472Z" fill="#1C1E24"/>
<path d="M5.27268 18.2586L5.2678 19.3983L3.77136 18.8257L3.77623 17.6859L5.27268 18.2586Z" fill="#1C1E24"/>
<path d="M5.27933 16.7093L5.27445 17.849L3.77802 17.2763L3.78288 16.1366L5.27933 16.7093Z" fill="#1C1E24"/>
<path d="M7.32801 19.0451L7.32314 20.1848L5.82669 19.6121L5.83157 18.4724L7.32801 19.0451Z" fill="#1C1E24"/>
<path d="M7.33464 17.4958L7.32976 18.6355L5.83331 18.0628L5.83819 16.9231L7.33464 17.4958Z" fill="#1C1E24"/>
<path d="M9.38333 19.8317L9.37846 20.9714L7.88202 20.3988L7.8869 19.259L9.38333 19.8317Z" fill="#1C1E24"/>
<path d="M9.38996 18.2824L9.38508 19.4221L7.88864 18.8495L7.89352 17.7097L9.38996 18.2824Z" fill="#1C1E24"/>
<path d="M11.4401 20.6187L11.4352 21.7585L9.93735 21.1853L9.94222 20.0455L11.4401 20.6187Z" fill="#1C1E24"/>
<path d="M7.34615 14.3094L7.34127 15.4491L5.84482 14.8764L5.8497 13.7367L7.34615 14.3094Z" fill="#1C1E24"/>
<path d="M13.4954 21.4053L13.4905 22.545L11.9941 21.9724L11.9989 20.8326L13.4954 21.4053Z" fill="#1C1E24"/>
<path d="M14.9108 22.1338C15.1881 22.2399 15.414 22.4982 15.4131 22.7105C15.4122 22.9228 15.1848 23.0076 14.9075 22.9015C14.6288 22.7948 14.4029 22.5365 14.4038 22.3242C14.4047 22.1119 14.6321 22.0271 14.9108 22.1338Z" fill="#1C1E24"/>
<path d="M7.35276 12.7589L7.34788 13.8987L5.85144 13.326L5.85631 12.1863L7.35276 12.7589Z" fill="#1C1E24"/>
<path d="M13.502 19.856L13.4971 20.9957L12.0007 20.4231L12.0056 19.2833L13.502 19.856Z" fill="#1C1E24"/>
<path d="M13.5135 16.6695L13.5086 17.8092L12.0122 17.2366L12.0171 16.0968L13.5135 16.6695Z" fill="#1C1E24"/>
<path d="M11.4648 14.3326L11.46 15.4723L9.9621 14.8991L9.96696 13.7594L11.4648 14.3326Z" fill="#1C1E24"/>
<path d="M13.5201 15.1191L13.5152 16.2588L12.0188 15.6862L12.0237 14.5464L13.5201 15.1191Z" fill="#1C1E24"/>
<path d="M3.2421 11.1859L3.23724 12.3256L1.73938 11.7524L1.74426 10.6127L3.2421 11.1859Z" fill="#1C1E24"/>
<path d="M3.23548 12.7363L3.2306 13.876L1.73276 13.3028L1.73762 12.1631L3.23548 12.7363Z" fill="#1C1E24"/>
<path d="M5.29744 11.9724L5.29256 13.1122L3.79611 12.5395L3.80099 11.3998L5.29744 11.9724Z" fill="#1C1E24"/>
<path d="M5.2908 13.5228L5.28594 14.6626L3.78949 14.0899L3.79436 12.9501L5.2908 13.5228Z" fill="#1C1E24"/>
<path d="M9.40142 15.0959L9.39655 16.2356L7.90012 15.6629L7.90498 14.5232L9.40142 15.0959Z" fill="#1C1E24"/>
<path d="M9.40808 13.5455L9.4032 14.6852L7.90677 14.1126L7.91165 12.9728L9.40808 13.5455Z" fill="#1C1E24"/>
<path d="M14.9356 15.8476C15.2129 15.9537 15.4388 16.212 15.4379 16.4243C15.437 16.6366 15.2096 16.7214 14.9323 16.6153C14.6535 16.5086 14.4276 16.2503 14.4285 16.038C14.4294 15.8257 14.6568 15.7409 14.9356 15.8476Z" fill="#1C1E24"/>
<path d="M14.9289 17.3969C15.2063 17.503 15.4322 17.7613 15.4313 17.9736C15.4304 18.1859 15.203 18.2707 14.9257 18.1646C14.6469 18.0579 14.421 17.7996 14.4219 17.5873C14.4228 17.375 14.6502 17.2902 14.9289 17.3969Z" fill="#1C1E24"/>
<path d="M14.9174 20.5834C15.1947 20.6896 15.4207 20.9489 15.4198 21.1612C15.4189 21.3724 15.1915 21.4583 14.9141 21.3522C14.6354 21.2455 14.4095 20.9862 14.4104 20.7749C14.4113 20.5626 14.6387 20.4768 14.9174 20.5834Z" fill="#1C1E24"/>
<path d="M37.7657 30.0848L30.0179 33.0498C29.7888 33.1374 29.6036 33.3492 29.6043 33.5237C29.605 33.6974 29.7915 33.7678 30.0205 33.6801L37.7684 30.7152C37.9975 30.6275 38.1816 30.4153 38.1809 30.2416C38.1801 30.0671 37.9948 29.9971 37.7657 30.0848Z" fill="#1C1E24"/>
<path d="M30.0054 29.2096L37.7532 26.2446C37.9823 26.157 38.1664 25.9455 38.1657 25.7711C38.165 25.5974 37.9796 25.5266 37.7505 25.6142L30.0027 28.5792C29.7736 28.6669 29.5884 28.8795 29.5891 29.0532C29.5899 29.2276 29.7763 29.2973 30.0054 29.2096Z" fill="#1C1E24"/>
<path d="M30.0054 27.7192L37.7532 24.7543C37.9823 24.6666 38.1664 24.4552 38.1657 24.2807C38.165 24.107 37.9796 24.0362 37.7505 24.1239L30.0027 27.0888C29.7736 27.1765 29.5884 27.3891 29.5891 27.5628C29.5899 27.7373 29.7763 27.8069 30.0054 27.7192Z" fill="#1C1E24"/>
<path d="M30.0054 26.2289L37.7532 23.264C37.9823 23.1763 38.1664 22.9649 38.1657 22.7904C38.165 22.6167 37.9796 22.5459 37.7505 22.6336L30.0027 25.5986C29.7736 25.6862 29.5884 25.8988 29.5891 26.0725C29.5899 26.247 29.7763 26.3166 30.0054 26.2289Z" fill="#1C1E24"/>
<path d="M30.0104 30.7L37.7583 27.735C37.9874 27.6473 38.1715 27.4351 38.1708 27.2615C38.17 27.087 37.9847 27.017 37.7556 27.1046L30.0077 30.0696C29.7786 30.1573 29.5935 30.3691 29.5942 30.5436C29.5949 30.7172 29.7813 30.7876 30.0104 30.7Z" fill="#1C1E24"/>
<path d="M30.0155 32.1896L37.7633 29.2247C37.9924 29.137 38.1765 28.9256 38.1758 28.7511C38.1751 28.5774 37.9897 28.5066 37.7606 28.5943L30.0128 31.5593C29.7837 31.6469 29.5985 31.8595 29.5992 32.0332C29.6 32.2077 29.7864 32.2773 30.0155 32.1896Z" fill="#1C1E24"/>
<path d="M1.21149 27.6328L16.2469 33.3864L16.2377 35.3192L1.20535 29.5656L1.21149 27.6328Z" fill="#1C1E24"/>
<path d="M12.1037 32.3363L12.8852 32.9157L15.3404 33.8552L15.339 34.1672L12.8853 33.2283L12.1 33.2091L5.32445 30.6162L4.54295 30.0358L2.08923 29.0968L2.09057 28.7848L4.54569 29.7243L5.32819 29.7435L12.1037 32.3363Z" fill="#1C1E24"/>
<path d="M0.0263977 8.67111L22.5376 0L40 6.68256L17.4888 15.3537L0.0263977 8.67111Z" fill="#9ACD32"/>
</svg>
