<svg width="40" height="40" viewBox="0 0 40 40" fill="none" xmlns="http://www.w3.org/2000/svg">
<path d="M13.6 17.9L17.9 13.55L15.1 10.7L12.9 12.9L10.1 10.1L12.25 7.9L10 5.65L5.65 10L13.6 17.9ZM30 34.35L34.35 30L32.1 27.75L29.9 29.9L27.1 27.1L29.25 24.9L26.4 22.1L22.1 26.4L30 34.35ZM10.5 38H2V29.5L10.75 20.75L0 10L10 0L20.8 10.8L28.35 3.2C28.75 2.8 29.2 2.5 29.7 2.3C30.2 2.1 30.7167 2 31.25 2C31.7833 2 32.3 2.1 32.8 2.3C33.3 2.5 33.75 2.8 34.15 3.2L36.8 5.9C37.2 6.3 37.5 6.75 37.7 7.25C37.9 7.75 38 8.26667 38 8.8C38 9.33333 37.9 9.84167 37.7 10.325C37.5 10.8083 37.2 11.25 36.8 11.65L29.25 19.25L40 30L30 40L19.25 29.25L10.5 38ZM6 34H8.8L28.4 14.45L25.55 11.6L6 31.2V34ZM27 13.05L25.55 11.6L28.4 14.45L27 13.05Z" fill="#9ACD32"/>
</svg>
